<?xml version="1.0" encoding="UTF-8" standalone="no"?>
<!DOCTYPE svg PUBLIC "-//W3C//DTD SVG 1.1//EN"
 "http://www.w3.org/Graphics/SVG/1.1/DTD/svg11.dtd">
<!-- Generated by graphviz version 2.38.0 (20140413.2041)
 -->
<!-- Title: G Pages: 1 -->
<svg width="2240pt" height="260pt"
 viewBox="0.00 0.00 2240.00 260.00" xmlns="http://www.w3.org/2000/svg" xmlns:xlink="http://www.w3.org/1999/xlink">
<g id="graph0" class="graph" transform="scale(1 1) rotate(0) translate(4 256)">
<title>G</title>
<polygon fill="black" stroke="none" points="-4,4 -4,-256 2236,-256 2236,4 -4,4"/>
<!-- 1 -->
<g id="node1" class="node"><title>1</title>
<ellipse fill="none" stroke="yellow" stroke-width="5" cx="2196" cy="-171" rx="36" ry="36"/>
<text text-anchor="middle" x="2196" y="-164.1" font-family="Times New Roman,serif" font-size="28.00" fill="white">1</text>
</g>
<!-- 2 -->
<g id="node2" class="node"><title>2</title>
<ellipse fill="none" stroke="yellow" stroke-width="5" cx="2088" cy="-171" rx="36" ry="36"/>
<text text-anchor="middle" x="2088" y="-164.1" font-family="Times New Roman,serif" font-size="28.00" fill="white">2</text>
</g>
<!-- 2&#45;&gt;1 -->
<g id="edge1" class="edge"><title>2&#45;&gt;1</title>
<path fill="none" stroke="white" d="M2124,-171C2132.15,-171 2140.94,-171 2149.46,-171"/>
<polygon fill="white" stroke="white" points="2149.67,-174.5 2159.67,-171 2149.67,-167.5 2149.67,-174.5"/>
</g>
<!-- 3 -->
<g id="node3" class="node"><title>3</title>
<ellipse fill="none" stroke="yellow" stroke-width="5" cx="1440" cy="-216" rx="36" ry="36"/>
<text text-anchor="middle" x="1440" y="-209.1" font-family="Times New Roman,serif" font-size="28.00" fill="white">3</text>
</g>
<!-- 10 -->
<g id="node10" class="node"><title>10</title>
<ellipse fill="none" stroke="yellow" stroke-width="5" cx="1548" cy="-171" rx="36" ry="36"/>
<text text-anchor="middle" x="1548" y="-164.1" font-family="Times New Roman,serif" font-size="28.00" fill="white">10</text>
</g>
<!-- 3&#45;&gt;10 -->
<g id="edge2" class="edge"><title>3&#45;&gt;10</title>
<path fill="none" stroke="white" d="M1473.38,-202.254C1483.35,-198.019 1494.49,-193.294 1505.01,-188.826"/>
<polygon fill="white" stroke="white" points="1506.62,-191.946 1514.45,-184.817 1503.88,-185.503 1506.62,-191.946"/>
</g>
<!-- 4 -->
<g id="node4" class="node"><title>4</title>
<ellipse fill="none" stroke="yellow" stroke-width="5" cx="1980" cy="-171" rx="36" ry="36"/>
<text text-anchor="middle" x="1980" y="-164.1" font-family="Times New Roman,serif" font-size="28.00" fill="white">4</text>
</g>
<!-- 4&#45;&gt;2 -->
<g id="edge7" class="edge"><title>4&#45;&gt;2</title>
<path fill="none" stroke="white" d="M2016,-171C2024.15,-171 2032.94,-171 2041.46,-171"/>
<polygon fill="white" stroke="white" points="2041.67,-174.5 2051.67,-171 2041.67,-167.5 2041.67,-174.5"/>
</g>
<!-- 5 -->
<g id="node5" class="node"><title>5</title>
<ellipse fill="none" stroke="yellow" stroke-width="5" cx="1656" cy="-171" rx="36" ry="36"/>
<text text-anchor="middle" x="1656" y="-164.1" font-family="Times New Roman,serif" font-size="28.00" fill="white">5</text>
</g>
<!-- 16 -->
<g id="node16" class="node"><title>16</title>
<ellipse fill="none" stroke="yellow" stroke-width="5" cx="1764" cy="-171" rx="36" ry="36"/>
<text text-anchor="middle" x="1764" y="-164.1" font-family="Times New Roman,serif" font-size="28.00" fill="white">16</text>
</g>
<!-- 5&#45;&gt;16 -->
<g id="edge4" class="edge"><title>5&#45;&gt;16</title>
<path fill="none" stroke="white" d="M1692,-171C1700.15,-171 1708.94,-171 1717.46,-171"/>
<polygon fill="white" stroke="white" points="1717.67,-174.5 1727.67,-171 1717.67,-167.5 1717.67,-174.5"/>
</g>
<!-- 6 -->
<g id="node6" class="node"><title>6</title>
<ellipse fill="none" stroke="yellow" stroke-width="5" cx="1332" cy="-216" rx="36" ry="36"/>
<text text-anchor="middle" x="1332" y="-209.1" font-family="Times New Roman,serif" font-size="28.00" fill="white">6</text>
</g>
<!-- 6&#45;&gt;3 -->
<g id="edge8" class="edge"><title>6&#45;&gt;3</title>
<path fill="none" stroke="white" d="M1368,-216C1376.15,-216 1384.94,-216 1393.46,-216"/>
<polygon fill="white" stroke="white" points="1393.67,-219.5 1403.67,-216 1393.67,-212.5 1393.67,-219.5"/>
</g>
<!-- 7 -->
<g id="node7" class="node"><title>7</title>
<ellipse fill="none" stroke="yellow" stroke-width="5" cx="468" cy="-216" rx="36" ry="36"/>
<text text-anchor="middle" x="468" y="-209.1" font-family="Times New Roman,serif" font-size="28.00" fill="white">7</text>
</g>
<!-- 22 -->
<g id="node20" class="node"><title>22</title>
<ellipse fill="none" stroke="white" stroke-width="5" cx="576" cy="-126" rx="36" ry="36"/>
<text text-anchor="middle" x="576" y="-119.1" font-family="Times New Roman,serif" font-size="28.00" fill="white">22</text>
</g>
<!-- 7&#45;&gt;22 -->
<g id="edge9" class="edge"><title>7&#45;&gt;22</title>
<path fill="none" stroke="white" d="M496.023,-193.056C509.479,-181.631 525.903,-167.686 540.281,-155.478"/>
<polygon fill="white" stroke="white" points="542.669,-158.042 548.027,-148.902 538.139,-152.706 542.669,-158.042"/>
</g>
<!-- 8 -->
<g id="node8" class="node"><title>8</title>
<ellipse fill="none" stroke="yellow" stroke-width="5" cx="1872" cy="-171" rx="36" ry="36"/>
<text text-anchor="middle" x="1872" y="-164.1" font-family="Times New Roman,serif" font-size="28.00" fill="white">8</text>
</g>
<!-- 8&#45;&gt;4 -->
<g id="edge6" class="edge"><title>8&#45;&gt;4</title>
<path fill="none" stroke="white" d="M1908,-171C1916.15,-171 1924.94,-171 1933.46,-171"/>
<polygon fill="white" stroke="white" points="1933.67,-174.5 1943.67,-171 1933.67,-167.5 1933.67,-174.5"/>
</g>
<!-- 9 -->
<g id="node9" class="node"><title>9</title>
<ellipse fill="none" stroke="yellow" stroke-width="5" cx="144" cy="-216" rx="36" ry="36"/>
<text text-anchor="middle" x="144" y="-209.1" font-family="Times New Roman,serif" font-size="28.00" fill="white">9</text>
</g>
<!-- 28 -->
<g id="node26" class="node"><title>28</title>
<ellipse fill="none" stroke="white" stroke-width="5" cx="252" cy="-216" rx="36" ry="36"/>
<text text-anchor="middle" x="252" y="-209.1" font-family="Times New Roman,serif" font-size="28.00" fill="white">28</text>
</g>
<!-- 9&#45;&gt;28 -->
<g id="edge19" class="edge"><title>9&#45;&gt;28</title>
<path fill="none" stroke="white" d="M180.002,-216C188.148,-216 196.937,-216 205.464,-216"/>
<polygon fill="white" stroke="white" points="205.672,-219.5 215.672,-216 205.672,-212.5 205.672,-219.5"/>
</g>
<!-- 10&#45;&gt;5 -->
<g id="edge3" class="edge"><title>10&#45;&gt;5</title>
<path fill="none" stroke="white" d="M1584,-171C1592.15,-171 1600.94,-171 1609.46,-171"/>
<polygon fill="white" stroke="white" points="1609.67,-174.5 1619.67,-171 1609.67,-167.5 1609.67,-174.5"/>
</g>
<!-- 11 -->
<g id="node11" class="node"><title>11</title>
<ellipse fill="none" stroke="yellow" stroke-width="5" cx="684" cy="-126" rx="36" ry="36"/>
<text text-anchor="middle" x="684" y="-119.1" font-family="Times New Roman,serif" font-size="28.00" fill="white">11</text>
</g>
<!-- 34 -->
<g id="node21" class="node"><title>34</title>
<ellipse fill="none" stroke="white" stroke-width="5" cx="792" cy="-126" rx="36" ry="36"/>
<text text-anchor="middle" x="792" y="-119.1" font-family="Times New Roman,serif" font-size="28.00" fill="white">34</text>
</g>
<!-- 11&#45;&gt;34 -->
<g id="edge11" class="edge"><title>11&#45;&gt;34</title>
<path fill="none" stroke="white" d="M720.002,-126C728.148,-126 736.937,-126 745.464,-126"/>
<polygon fill="white" stroke="white" points="745.672,-129.5 755.672,-126 745.672,-122.5 745.672,-129.5"/>
</g>
<!-- 12 -->
<g id="node12" class="node"><title>12</title>
<ellipse fill="none" stroke="yellow" stroke-width="5" cx="1224" cy="-216" rx="36" ry="36"/>
<text text-anchor="middle" x="1224" y="-209.1" font-family="Times New Roman,serif" font-size="28.00" fill="white">12</text>
</g>
<!-- 12&#45;&gt;6 -->
<g id="edge22" class="edge"><title>12&#45;&gt;6</title>
<path fill="none" stroke="white" d="M1260,-216C1268.15,-216 1276.94,-216 1285.46,-216"/>
<polygon fill="white" stroke="white" points="1285.67,-219.5 1295.67,-216 1285.67,-212.5 1285.67,-219.5"/>
</g>
<!-- 13 -->
<g id="node13" class="node"><title>13</title>
<ellipse fill="none" stroke="yellow" stroke-width="5" cx="1224" cy="-126" rx="36" ry="36"/>
<text text-anchor="middle" x="1224" y="-119.1" font-family="Times New Roman,serif" font-size="28.00" fill="white">13</text>
</g>
<!-- 40 -->
<g id="node24" class="node"><title>40</title>
<ellipse fill="none" stroke="white" stroke-width="5" cx="1332" cy="-126" rx="36" ry="36"/>
<text text-anchor="middle" x="1332" y="-119.1" font-family="Times New Roman,serif" font-size="28.00" fill="white">40</text>
</g>
<!-- 13&#45;&gt;40 -->
<g id="edge16" class="edge"><title>13&#45;&gt;40</title>
<path fill="none" stroke="white" d="M1260,-126C1268.15,-126 1276.94,-126 1285.46,-126"/>
<polygon fill="white" stroke="white" points="1285.67,-129.5 1295.67,-126 1285.67,-122.5 1285.67,-129.5"/>
</g>
<!-- 14 -->
<g id="node14" class="node"><title>14</title>
<ellipse fill="none" stroke="yellow" stroke-width="5" cx="360" cy="-216" rx="36" ry="36"/>
<text text-anchor="middle" x="360" y="-209.1" font-family="Times New Roman,serif" font-size="28.00" fill="white">14</text>
</g>
<!-- 14&#45;&gt;7 -->
<g id="edge21" class="edge"><title>14&#45;&gt;7</title>
<path fill="none" stroke="white" d="M396.002,-216C404.148,-216 412.937,-216 421.464,-216"/>
<polygon fill="white" stroke="white" points="421.672,-219.5 431.672,-216 421.672,-212.5 421.672,-219.5"/>
</g>
<!-- 15 -->
<g id="node15" class="node"><title>15</title>
<ellipse fill="none" stroke="yellow" stroke-width="5" cx="360" cy="-36" rx="36" ry="36"/>
<text text-anchor="middle" x="360" y="-29.1" font-family="Times New Roman,serif" font-size="28.00" fill="white">15</text>
</g>
<!-- 46 -->
<g id="node27" class="node"><title>46</title>
<ellipse fill="none" stroke="white" stroke-width="5" cx="468" cy="-36" rx="36" ry="36"/>
<text text-anchor="middle" x="468" y="-29.1" font-family="Times New Roman,serif" font-size="28.00" fill="white">46</text>
</g>
<!-- 15&#45;&gt;46 -->
<g id="edge23" class="edge"><title>15&#45;&gt;46</title>
<path fill="none" stroke="white" d="M396.002,-36C404.148,-36 412.937,-36 421.464,-36"/>
<polygon fill="white" stroke="white" points="421.672,-39.5001 431.672,-36 421.672,-32.5001 421.672,-39.5001"/>
</g>
<!-- 16&#45;&gt;8 -->
<g id="edge5" class="edge"><title>16&#45;&gt;8</title>
<path fill="none" stroke="white" d="M1800,-171C1808.15,-171 1816.94,-171 1825.46,-171"/>
<polygon fill="white" stroke="white" points="1825.67,-174.5 1835.67,-171 1825.67,-167.5 1825.67,-174.5"/>
</g>
<!-- 17 -->
<g id="node17" class="node"><title>17</title>
<ellipse fill="none" stroke="yellow" stroke-width="5" cx="900" cy="-126" rx="36" ry="36"/>
<text text-anchor="middle" x="900" y="-119.1" font-family="Times New Roman,serif" font-size="28.00" fill="white">17</text>
</g>
<!-- 52 -->
<g id="node22" class="node"><title>52</title>
<ellipse fill="none" stroke="white" stroke-width="5" cx="1008" cy="-126" rx="36" ry="36"/>
<text text-anchor="middle" x="1008" y="-119.1" font-family="Times New Roman,serif" font-size="28.00" fill="white">52</text>
</g>
<!-- 17&#45;&gt;52 -->
<g id="edge13" class="edge"><title>17&#45;&gt;52</title>
<path fill="none" stroke="white" d="M936.002,-126C944.148,-126 952.937,-126 961.464,-126"/>
<polygon fill="white" stroke="white" points="961.672,-129.5 971.672,-126 961.672,-122.5 961.672,-129.5"/>
</g>
<!-- 18 -->
<g id="node18" class="node"><title>18</title>
<ellipse fill="none" stroke="yellow" stroke-width="5" cx="36" cy="-216" rx="36" ry="36"/>
<text text-anchor="middle" x="36" y="-209.1" font-family="Times New Roman,serif" font-size="28.00" fill="white">18</text>
</g>
<!-- 18&#45;&gt;9 -->
<g id="edge32" class="edge"><title>18&#45;&gt;9</title>
<path fill="none" stroke="white" d="M72.0021,-216C80.1478,-216 88.9372,-216 97.4635,-216"/>
<polygon fill="white" stroke="white" points="97.6725,-219.5 107.672,-216 97.6724,-212.5 97.6725,-219.5"/>
</g>
<!-- 19 -->
<g id="node19" class="node"><title>19</title>
<ellipse fill="none" stroke="yellow" stroke-width="5" cx="36" cy="-126" rx="36" ry="36"/>
<text text-anchor="middle" x="36" y="-119.1" font-family="Times New Roman,serif" font-size="28.00" fill="white">19</text>
</g>
<!-- 58 -->
<g id="node35" class="node"><title>58</title>
<ellipse fill="none" stroke="white" stroke-width="5" cx="144" cy="-126" rx="36" ry="36"/>
<text text-anchor="middle" x="144" y="-119.1" font-family="Times New Roman,serif" font-size="28.00" fill="white">58</text>
</g>
<!-- 19&#45;&gt;58 -->
<g id="edge33" class="edge"><title>19&#45;&gt;58</title>
<path fill="none" stroke="white" d="M72.0021,-126C80.1478,-126 88.9372,-126 97.4635,-126"/>
<polygon fill="white" stroke="white" points="97.6725,-129.5 107.672,-126 97.6724,-122.5 97.6725,-129.5"/>
</g>
<!-- 22&#45;&gt;11 -->
<g id="edge10" class="edge"><title>22&#45;&gt;11</title>
<path fill="none" stroke="white" d="M612.002,-126C620.148,-126 628.937,-126 637.464,-126"/>
<polygon fill="white" stroke="white" points="637.672,-129.5 647.672,-126 637.672,-122.5 637.672,-129.5"/>
</g>
<!-- 34&#45;&gt;17 -->
<g id="edge12" class="edge"><title>34&#45;&gt;17</title>
<path fill="none" stroke="white" d="M828.002,-126C836.148,-126 844.937,-126 853.464,-126"/>
<polygon fill="white" stroke="white" points="853.672,-129.5 863.672,-126 853.672,-122.5 853.672,-129.5"/>
</g>
<!-- 26 -->
<g id="node23" class="node"><title>26</title>
<ellipse fill="none" stroke="white" stroke-width="5" cx="1116" cy="-126" rx="36" ry="36"/>
<text text-anchor="middle" x="1116" y="-119.1" font-family="Times New Roman,serif" font-size="28.00" fill="white">26</text>
</g>
<!-- 52&#45;&gt;26 -->
<g id="edge14" class="edge"><title>52&#45;&gt;26</title>
<path fill="none" stroke="white" d="M1044,-126C1052.15,-126 1060.94,-126 1069.46,-126"/>
<polygon fill="white" stroke="white" points="1069.67,-129.5 1079.67,-126 1069.67,-122.5 1069.67,-129.5"/>
</g>
<!-- 26&#45;&gt;13 -->
<g id="edge15" class="edge"><title>26&#45;&gt;13</title>
<path fill="none" stroke="white" d="M1152,-126C1160.15,-126 1168.94,-126 1177.46,-126"/>
<polygon fill="white" stroke="white" points="1177.67,-129.5 1187.67,-126 1177.67,-122.5 1177.67,-129.5"/>
</g>
<!-- 20 -->
<g id="node25" class="node"><title>20</title>
<ellipse fill="none" stroke="white" stroke-width="5" cx="1440" cy="-126" rx="36" ry="36"/>
<text text-anchor="middle" x="1440" y="-119.1" font-family="Times New Roman,serif" font-size="28.00" fill="white">20</text>
</g>
<!-- 40&#45;&gt;20 -->
<g id="edge17" class="edge"><title>40&#45;&gt;20</title>
<path fill="none" stroke="white" d="M1368,-126C1376.15,-126 1384.94,-126 1393.46,-126"/>
<polygon fill="white" stroke="white" points="1393.67,-129.5 1403.67,-126 1393.67,-122.5 1393.67,-129.5"/>
</g>
<!-- 20&#45;&gt;10 -->
<g id="edge18" class="edge"><title>20&#45;&gt;10</title>
<path fill="none" stroke="white" d="M1473.38,-139.746C1483.35,-143.981 1494.49,-148.706 1505.01,-153.174"/>
<polygon fill="white" stroke="white" points="1503.88,-156.497 1514.45,-157.183 1506.62,-150.054 1503.88,-156.497"/>
</g>
<!-- 28&#45;&gt;14 -->
<g id="edge20" class="edge"><title>28&#45;&gt;14</title>
<path fill="none" stroke="white" d="M288.002,-216C296.148,-216 304.937,-216 313.464,-216"/>
<polygon fill="white" stroke="white" points="313.672,-219.5 323.672,-216 313.672,-212.5 313.672,-219.5"/>
</g>
<!-- 23 -->
<g id="node28" class="node"><title>23</title>
<ellipse fill="none" stroke="white" stroke-width="5" cx="576" cy="-36" rx="36" ry="36"/>
<text text-anchor="middle" x="576" y="-29.1" font-family="Times New Roman,serif" font-size="28.00" fill="white">23</text>
</g>
<!-- 46&#45;&gt;23 -->
<g id="edge24" class="edge"><title>46&#45;&gt;23</title>
<path fill="none" stroke="white" d="M504.002,-36C512.148,-36 520.937,-36 529.464,-36"/>
<polygon fill="white" stroke="white" points="529.672,-39.5001 539.672,-36 529.672,-32.5001 529.672,-39.5001"/>
</g>
<!-- 70 -->
<g id="node29" class="node"><title>70</title>
<ellipse fill="none" stroke="white" stroke-width="5" cx="684" cy="-36" rx="36" ry="36"/>
<text text-anchor="middle" x="684" y="-29.1" font-family="Times New Roman,serif" font-size="28.00" fill="white">70</text>
</g>
<!-- 23&#45;&gt;70 -->
<g id="edge25" class="edge"><title>23&#45;&gt;70</title>
<path fill="none" stroke="white" d="M612.002,-36C620.148,-36 628.937,-36 637.464,-36"/>
<polygon fill="white" stroke="white" points="637.672,-39.5001 647.672,-36 637.672,-32.5001 637.672,-39.5001"/>
</g>
<!-- 35 -->
<g id="node30" class="node"><title>35</title>
<ellipse fill="none" stroke="white" stroke-width="5" cx="792" cy="-36" rx="36" ry="36"/>
<text text-anchor="middle" x="792" y="-29.1" font-family="Times New Roman,serif" font-size="28.00" fill="white">35</text>
</g>
<!-- 70&#45;&gt;35 -->
<g id="edge26" class="edge"><title>70&#45;&gt;35</title>
<path fill="none" stroke="white" d="M720.002,-36C728.148,-36 736.937,-36 745.464,-36"/>
<polygon fill="white" stroke="white" points="745.672,-39.5001 755.672,-36 745.672,-32.5001 745.672,-39.5001"/>
</g>
<!-- 106 -->
<g id="node31" class="node"><title>106</title>
<ellipse fill="none" stroke="white" stroke-width="5" cx="900" cy="-36" rx="36" ry="36"/>
<text text-anchor="middle" x="900" y="-29.1" font-family="Times New Roman,serif" font-size="28.00" fill="white">106</text>
</g>
<!-- 35&#45;&gt;106 -->
<g id="edge27" class="edge"><title>35&#45;&gt;106</title>
<path fill="none" stroke="white" d="M828.002,-36C836.148,-36 844.937,-36 853.464,-36"/>
<polygon fill="white" stroke="white" points="853.672,-39.5001 863.672,-36 853.672,-32.5001 853.672,-39.5001"/>
</g>
<!-- 53 -->
<g id="node32" class="node"><title>53</title>
<ellipse fill="none" stroke="white" stroke-width="5" cx="1008" cy="-36" rx="36" ry="36"/>
<text text-anchor="middle" x="1008" y="-29.1" font-family="Times New Roman,serif" font-size="28.00" fill="white">53</text>
</g>
<!-- 106&#45;&gt;53 -->
<g id="edge28" class="edge"><title>106&#45;&gt;53</title>
<path fill="none" stroke="white" d="M936.002,-36C944.148,-36 952.937,-36 961.464,-36"/>
<polygon fill="white" stroke="white" points="961.672,-39.5001 971.672,-36 961.672,-32.5001 961.672,-39.5001"/>
</g>
<!-- 160 -->
<g id="node33" class="node"><title>160</title>
<ellipse fill="none" stroke="white" stroke-width="5" cx="1116" cy="-36" rx="36" ry="36"/>
<text text-anchor="middle" x="1116" y="-29.1" font-family="Times New Roman,serif" font-size="28.00" fill="white">160</text>
</g>
<!-- 53&#45;&gt;160 -->
<g id="edge29" class="edge"><title>53&#45;&gt;160</title>
<path fill="none" stroke="white" d="M1044,-36C1052.15,-36 1060.94,-36 1069.46,-36"/>
<polygon fill="white" stroke="white" points="1069.67,-39.5001 1079.67,-36 1069.67,-32.5001 1069.67,-39.5001"/>
</g>
<!-- 80 -->
<g id="node34" class="node"><title>80</title>
<ellipse fill="none" stroke="white" stroke-width="5" cx="1224" cy="-36" rx="36" ry="36"/>
<text text-anchor="middle" x="1224" y="-29.1" font-family="Times New Roman,serif" font-size="28.00" fill="white">80</text>
</g>
<!-- 160&#45;&gt;80 -->
<g id="edge30" class="edge"><title>160&#45;&gt;80</title>
<path fill="none" stroke="white" d="M1152,-36C1160.15,-36 1168.94,-36 1177.46,-36"/>
<polygon fill="white" stroke="white" points="1177.67,-39.5001 1187.67,-36 1177.67,-32.5001 1177.67,-39.5001"/>
</g>
<!-- 80&#45;&gt;40 -->
<g id="edge31" class="edge"><title>80&#45;&gt;40</title>
<path fill="none" stroke="white" d="M1252.02,-58.9437C1265.48,-70.3686 1281.9,-84.3136 1296.28,-96.5217"/>
<polygon fill="white" stroke="white" points="1294.14,-99.2939 1304.03,-103.098 1298.67,-93.9578 1294.14,-99.2939"/>
</g>
<!-- 29 -->
<g id="node36" class="node"><title>29</title>
<ellipse fill="none" stroke="white" stroke-width="5" cx="252" cy="-126" rx="36" ry="36"/>
<text text-anchor="middle" x="252" y="-119.1" font-family="Times New Roman,serif" font-size="28.00" fill="white">29</text>
</g>
<!-- 58&#45;&gt;29 -->
<g id="edge34" class="edge"><title>58&#45;&gt;29</title>
<path fill="none" stroke="white" d="M180.002,-126C188.148,-126 196.937,-126 205.464,-126"/>
<polygon fill="white" stroke="white" points="205.672,-129.5 215.672,-126 205.672,-122.5 205.672,-129.5"/>
</g>
<!-- 88 -->
<g id="node37" class="node"><title>88</title>
<ellipse fill="none" stroke="white" stroke-width="5" cx="360" cy="-126" rx="36" ry="36"/>
<text text-anchor="middle" x="360" y="-119.1" font-family="Times New Roman,serif" font-size="28.00" fill="white">88</text>
</g>
<!-- 29&#45;&gt;88 -->
<g id="edge35" class="edge"><title>29&#45;&gt;88</title>
<path fill="none" stroke="white" d="M288.002,-126C296.148,-126 304.937,-126 313.464,-126"/>
<polygon fill="white" stroke="white" points="313.672,-129.5 323.672,-126 313.672,-122.5 313.672,-129.5"/>
</g>
<!-- 44 -->
<g id="node38" class="node"><title>44</title>
<ellipse fill="none" stroke="white" stroke-width="5" cx="468" cy="-126" rx="36" ry="36"/>
<text text-anchor="middle" x="468" y="-119.1" font-family="Times New Roman,serif" font-size="28.00" fill="white">44</text>
</g>
<!-- 88&#45;&gt;44 -->
<g id="edge36" class="edge"><title>88&#45;&gt;44</title>
<path fill="none" stroke="white" d="M396.002,-126C404.148,-126 412.937,-126 421.464,-126"/>
<polygon fill="white" stroke="white" points="421.672,-129.5 431.672,-126 421.672,-122.5 421.672,-129.5"/>
</g>
<!-- 44&#45;&gt;22 -->
<g id="edge37" class="edge"><title>44&#45;&gt;22</title>
<path fill="none" stroke="white" d="M504.002,-126C512.148,-126 520.937,-126 529.464,-126"/>
<polygon fill="white" stroke="white" points="529.672,-129.5 539.672,-126 529.672,-122.5 529.672,-129.5"/>
</g>
</g>
</svg>
